<svg xmlns="http://www.w3.org/2000/svg"
  width="1000"
  height="560"
  viewBox="0 0 1000 560">

  <rect width="100%" height="100%" rx="22" fill="#0b1620"/>

  <text x="500" y="48" fill="#f8fafc" font-size="28" font-family="Arial, Helvetica, sans-serif" font-weight="700" text-anchor="middle">GitHub Activity Breakdown</text>
  <text x="500" y="78" fill="#94a3b8" font-size="16" font-family="Arial, Helvetica, sans-serif" font-weight="400" text-anchor="middle">Public contribution mix — last 365 days</text>

  <polygon points="500.0,237.5 537.5,275.0 500.0,312.5 462.5,275.0" fill="none" stroke="#334155" stroke-width="1.5" opacity="0.8"/><polygon points="500.0,200.0 575.0,275.0 500.0,350.0 425.0,275.0" fill="none" stroke="#334155" stroke-width="1.5" opacity="0.8"/><polygon points="500.0,162.5 612.5,275.0 500.0,387.5 387.5,275.0" fill="none" stroke="#334155" stroke-width="1.5" opacity="0.8"/><polygon points="500.0,125.0 650.0,275.0 500.0,425.0 350.0,275.0" fill="none" stroke="#334155" stroke-width="1.5" opacity="0.8"/>
  <line x1="500" y1="275" x2="500.0" y2="125.0" stroke="#64748b" stroke-width="1.6"/><line x1="500" y1="275" x2="650.0" y2="275.0" stroke="#64748b" stroke-width="1.6"/><line x1="500" y1="275" x2="500.0" y2="425.0" stroke="#64748b" stroke-width="1.6"/><line x1="500" y1="275" x2="350.0" y2="275.0" stroke="#64748b" stroke-width="1.6"/>

  <polygon
    points="500.0,275.0 500.0,275.0 500.0,346.85 421.85,275.0"
    fill="#22c55e"
    fill-opacity="0.35"
    stroke="#4ade80"
    stroke-width="4"
  />

  <circle cx="500.0" cy="275.0" r="6" fill="#86efac" stroke="#dcfce7" stroke-width="1.5"/><circle cx="500.0" cy="275.0" r="6" fill="#86efac" stroke="#dcfce7" stroke-width="1.5"/><circle cx="500.0" cy="346.85" r="6" fill="#86efac" stroke="#dcfce7" stroke-width="1.5"/><circle cx="421.85" cy="275.0" r="6" fill="#86efac" stroke="#dcfce7" stroke-width="1.5"/>
  <text x="500" y="122" fill="#94a3b8" font-size="20" font-family="Arial, Helvetica, sans-serif" font-weight="400" text-anchor="middle">Code Reviews</text><text x="812" y="283" fill="#94a3b8" font-size="20" font-family="Arial, Helvetica, sans-serif" font-weight="400" text-anchor="middle">Issues</text><text x="500" y="445" fill="#94a3b8" font-size="20" font-family="Arial, Helvetica, sans-serif" font-weight="400" text-anchor="middle">Pull Requests</text><text x="188" y="283" fill="#94a3b8" font-size="20" font-family="Arial, Helvetica, sans-serif" font-weight="400" text-anchor="middle">Commits</text>
  <text x="500" y="212" fill="#f8fafc" font-size="21" font-family="Arial, Helvetica, sans-serif" font-weight="700" text-anchor="middle">0.0%</text><text x="665" y="263" fill="#f8fafc" font-size="21" font-family="Arial, Helvetica, sans-serif" font-weight="700" text-anchor="middle">0.0%</text><text x="500" y="350" fill="#f8fafc" font-size="21" font-family="Arial, Helvetica, sans-serif" font-weight="700" text-anchor="middle">47.9%</text><text x="335" y="263" fill="#f8fafc" font-size="21" font-family="Arial, Helvetica, sans-serif" font-weight="700" text-anchor="middle">52.1%</text>
  <rect x="63.0" y="476" width="205" height="62" rx="12" fill="#111f2b" stroke="#243447" stroke-width="1"/><text x="79.0" y="500" fill="#94a3b8" font-size="13" font-family="Arial, Helvetica, sans-serif" font-weight="400" text-anchor="start">Code Reviews</text><text x="79.0" y="524" fill="#f8fafc" font-size="20" font-family="Arial, Helvetica, sans-serif" font-weight="700" text-anchor="start">0</text><rect x="286.0" y="476" width="205" height="62" rx="12" fill="#111f2b" stroke="#243447" stroke-width="1"/><text x="302.0" y="500" fill="#94a3b8" font-size="13" font-family="Arial, Helvetica, sans-serif" font-weight="400" text-anchor="start">Commits</text><text x="302.0" y="524" fill="#f8fafc" font-size="20" font-family="Arial, Helvetica, sans-serif" font-weight="700" text-anchor="start">37</text><rect x="509.0" y="476" width="205" height="62" rx="12" fill="#111f2b" stroke="#243447" stroke-width="1"/><text x="525.0" y="500" fill="#94a3b8" font-size="13" font-family="Arial, Helvetica, sans-serif" font-weight="400" text-anchor="start">Pull Requests</text><text x="525.0" y="524" fill="#f8fafc" font-size="20" font-family="Arial, Helvetica, sans-serif" font-weight="700" text-anchor="start">34</text><rect x="732.0" y="476" width="205" height="62" rx="12" fill="#111f2b" stroke="#243447" stroke-width="1"/><text x="748.0" y="500" fill="#94a3b8" font-size="13" font-family="Arial, Helvetica, sans-serif" font-weight="400" text-anchor="start">Issues</text><text x="748.0" y="524" fill="#f8fafc" font-size="20" font-family="Arial, Helvetica, sans-serif" font-weight="700" text-anchor="start">0</text>

</svg>
