<svg xmlns="http://www.w3.org/2000/svg" width="760" height="460" viewBox="0 0 760 460">
  <rect width="100%" height="100%" rx="18" fill="#0b1620"/>
  <text x="380" y="42" fill="#f8fafc" font-size="22" font-weight="700"
        font-family="Arial, sans-serif" text-anchor="middle">
    GitHub Activity Breakdown
  </text>
  <text x="380" y="70" fill="#94a3b8" font-size="14"
        font-family="Arial, sans-serif" text-anchor="middle">
    Public contribution mix — last 365 days
  </text>

  <polygon points="380.0,201.25 413.75,235.0 380.0,268.75 346.25,235.0" fill="none" stroke="#334155" stroke-width="1" opacity="0.55"/><polygon points="380.0,167.5 447.5,235.0 380.0,302.5 312.5,235.0" fill="none" stroke="#334155" stroke-width="1" opacity="0.55"/><polygon points="380.0,133.75 481.25,235.0 380.0,336.25 278.75,235.0" fill="none" stroke="#334155" stroke-width="1" opacity="0.55"/><polygon points="380.0,100.0 515.0,235.0 380.0,370.0 245.0,235.0" fill="none" stroke="#334155" stroke-width="1" opacity="0.55"/>
  <line x1="380" y1="235" x2="380.0" y2="100.0" stroke="#64748b" stroke-width="1.5"/><line x1="380" y1="235" x2="515.0" y2="235.0" stroke="#64748b" stroke-width="1.5"/><line x1="380" y1="235" x2="380.0" y2="370.0" stroke="#64748b" stroke-width="1.5"/><line x1="380" y1="235" x2="245.0" y2="235.0" stroke="#64748b" stroke-width="1.5"/>

  <polygon points="380.0,235.0 380.0,235.0 380.0,299.66 309.66,235.0" fill="#22c55e" fill-opacity="0.42"
           stroke="#4ade80" stroke-width="3"/>

  <circle cx="380.0" cy="235.0" r="5" fill="#86efac"/><circle cx="380.0" cy="235.0" r="5" fill="#86efac"/><circle cx="380.0" cy="299.66" r="5" fill="#86efac"/><circle cx="309.66" cy="235.0" r="5" fill="#86efac"/>

  <text x="380.0" y="54.2" fill="#cbd5e1" font-size="16" font-family="Arial, sans-serif" text-anchor="middle">Code Reviews</text><text x="564.8" y="235.0" fill="#cbd5e1" font-size="16" font-family="Arial, sans-serif" text-anchor="start">Issues</text><text x="380.0" y="427.8" fill="#cbd5e1" font-size="16" font-family="Arial, sans-serif" text-anchor="middle">Pull Requests</text><text x="195.2" y="235.0" fill="#cbd5e1" font-size="16" font-family="Arial, sans-serif" text-anchor="end">Commits</text>
  <text x="380.0" y="216.15" fill="#f8fafc" font-size="17" font-weight="700" font-family="Arial, sans-serif" text-anchor="middle">0.0%</text><text x="402.85" y="235.0" fill="#f8fafc" font-size="17" font-weight="700" font-family="Arial, sans-serif" text-anchor="start">0.0%</text><text x="380.0" y="326.51" fill="#f8fafc" font-size="17" font-weight="700" font-family="Arial, sans-serif" text-anchor="middle">47.9%</text><text x="286.81" y="235.0" fill="#f8fafc" font-size="17" font-weight="700" font-family="Arial, sans-serif" text-anchor="end">52.1%</text>

  <text x="380" y="423" fill="#94a3b8" font-size="13"
        font-family="Arial, sans-serif" text-anchor="middle">
    Code Reviews: 0 • Commits: 37 • Pull Requests: 34 • Issues: 0
  </text>
</svg>
